<mxfile host="Electron" modified="2023-11-20T14:02:35.845Z" agent="Mozilla/5.0 (Windows NT 10.0; Win64; x64) AppleWebKit/537.36 (KHTML, like Gecko) draw.io/21.6.8 Chrome/114.0.5735.289 Electron/25.5.0 Safari/537.36" etag="qnfYDvSuv421AA45vNfG" version="21.6.8" type="device">
  <diagram name="Página-1" id="XR4ebHps2N25Qvcpz3L0">
    <mxGraphModel dx="1091" dy="689" grid="1" gridSize="10" guides="1" tooltips="1" connect="1" arrows="1" fold="1" page="1" pageScale="1" pageWidth="827" pageHeight="1169" math="0" shadow="0">
      <root>
        <mxCell id="0" />
        <mxCell id="1" parent="0" />
        <mxCell id="41HEvBep1YAE45Kj1m3O-1" value="" style="shape=ellipse;html=1;dashed=0;whiteSpace=wrap;perimeter=ellipsePerimeter;verticalAlign=top;fontSize=15;" vertex="1" parent="1">
          <mxGeometry x="140" y="170" width="570" height="390" as="geometry" />
        </mxCell>
        <mxCell id="41HEvBep1YAE45Kj1m3O-8" style="edgeStyle=orthogonalEdgeStyle;rounded=0;orthogonalLoop=1;jettySize=auto;html=1;exitX=0.5;exitY=1;exitDx=0;exitDy=0;entryX=0.5;entryY=0;entryDx=0;entryDy=0;" edge="1" parent="1" source="41HEvBep1YAE45Kj1m3O-4" target="41HEvBep1YAE45Kj1m3O-6">
          <mxGeometry relative="1" as="geometry" />
        </mxCell>
        <mxCell id="41HEvBep1YAE45Kj1m3O-4" value="Tasks" style="html=1;dashed=0;whiteSpace=wrap;shape=partialRectangle;right=0;" vertex="1" parent="1">
          <mxGeometry x="170" y="160" width="100" height="30" as="geometry" />
        </mxCell>
        <mxCell id="41HEvBep1YAE45Kj1m3O-7" style="edgeStyle=orthogonalEdgeStyle;rounded=0;orthogonalLoop=1;jettySize=auto;html=1;exitX=0.5;exitY=1;exitDx=0;exitDy=0;entryX=0;entryY=0.5;entryDx=0;entryDy=0;" edge="1" parent="1" source="41HEvBep1YAE45Kj1m3O-5" target="41HEvBep1YAE45Kj1m3O-6">
          <mxGeometry relative="1" as="geometry" />
        </mxCell>
        <mxCell id="41HEvBep1YAE45Kj1m3O-5" value="Tags" style="html=1;dashed=0;whiteSpace=wrap;shape=partialRectangle;right=0;" vertex="1" parent="1">
          <mxGeometry x="40" y="250" width="100" height="30" as="geometry" />
        </mxCell>
        <mxCell id="41HEvBep1YAE45Kj1m3O-11" value="" style="edgeStyle=orthogonalEdgeStyle;rounded=0;orthogonalLoop=1;jettySize=auto;html=1;entryX=0;entryY=0;entryDx=0;entryDy=0;exitX=0;exitY=1;exitDx=0;exitDy=0;" edge="1" parent="1" source="41HEvBep1YAE45Kj1m3O-6" target="41HEvBep1YAE45Kj1m3O-10">
          <mxGeometry relative="1" as="geometry" />
        </mxCell>
        <mxCell id="41HEvBep1YAE45Kj1m3O-14" value="Tag(s) (Opcional)" style="edgeLabel;html=1;align=center;verticalAlign=middle;resizable=0;points=[];" vertex="1" connectable="0" parent="41HEvBep1YAE45Kj1m3O-11">
          <mxGeometry x="0.029" relative="1" as="geometry">
            <mxPoint x="-17" as="offset" />
          </mxGeometry>
        </mxCell>
        <mxCell id="41HEvBep1YAE45Kj1m3O-13" style="edgeStyle=orthogonalEdgeStyle;rounded=0;orthogonalLoop=1;jettySize=auto;html=1;exitX=1;exitY=1;exitDx=0;exitDy=0;entryX=1;entryY=0;entryDx=0;entryDy=0;" edge="1" parent="1" source="41HEvBep1YAE45Kj1m3O-6" target="41HEvBep1YAE45Kj1m3O-10">
          <mxGeometry relative="1" as="geometry" />
        </mxCell>
        <mxCell id="41HEvBep1YAE45Kj1m3O-15" value="Título + Data Entrega&lt;br style=&quot;font-size: 13px;&quot;&gt;&lt;span style=&quot;font-size: 13px;&quot;&gt;e Dados Opcionais&lt;/span&gt;" style="edgeLabel;html=1;align=center;verticalAlign=middle;resizable=0;points=[];" vertex="1" connectable="0" parent="41HEvBep1YAE45Kj1m3O-13">
          <mxGeometry x="-0.0369" y="1" relative="1" as="geometry">
            <mxPoint as="offset" />
          </mxGeometry>
        </mxCell>
        <mxCell id="41HEvBep1YAE45Kj1m3O-6" value="Consultar Task e Tag(s)" style="shape=ellipse;html=1;dashed=0;whiteSpace=wrap;perimeter=ellipsePerimeter;" vertex="1" parent="1">
          <mxGeometry x="240" y="280" width="120" height="50" as="geometry" />
        </mxCell>
        <mxCell id="41HEvBep1YAE45Kj1m3O-17" value="" style="edgeStyle=orthogonalEdgeStyle;rounded=0;orthogonalLoop=1;jettySize=auto;html=1;exitX=0.5;exitY=1;exitDx=0;exitDy=0;entryX=0.5;entryY=1;entryDx=0;entryDy=0;" edge="1" parent="1" source="41HEvBep1YAE45Kj1m3O-10" target="41HEvBep1YAE45Kj1m3O-16">
          <mxGeometry relative="1" as="geometry" />
        </mxCell>
        <mxCell id="41HEvBep1YAE45Kj1m3O-18" value="Dados Relacionados" style="edgeLabel;html=1;align=center;verticalAlign=middle;resizable=0;points=[];" vertex="1" connectable="0" parent="41HEvBep1YAE45Kj1m3O-17">
          <mxGeometry x="-0.0198" y="-1" relative="1" as="geometry">
            <mxPoint as="offset" />
          </mxGeometry>
        </mxCell>
        <mxCell id="41HEvBep1YAE45Kj1m3O-10" value="Relacionar Task com Tag(s)" style="shape=ellipse;html=1;dashed=0;whiteSpace=wrap;perimeter=ellipsePerimeter;" vertex="1" parent="1">
          <mxGeometry x="240" y="420" width="120" height="50" as="geometry" />
        </mxCell>
        <mxCell id="41HEvBep1YAE45Kj1m3O-20" value="" style="edgeStyle=orthogonalEdgeStyle;rounded=0;orthogonalLoop=1;jettySize=auto;html=1;" edge="1" parent="1" source="41HEvBep1YAE45Kj1m3O-16" target="41HEvBep1YAE45Kj1m3O-19">
          <mxGeometry relative="1" as="geometry" />
        </mxCell>
        <mxCell id="41HEvBep1YAE45Kj1m3O-21" value="Task" style="edgeLabel;html=1;align=center;verticalAlign=middle;resizable=0;points=[];" vertex="1" connectable="0" parent="41HEvBep1YAE45Kj1m3O-20">
          <mxGeometry x="0.0009" y="1" relative="1" as="geometry">
            <mxPoint as="offset" />
          </mxGeometry>
        </mxCell>
        <mxCell id="41HEvBep1YAE45Kj1m3O-16" value="Gerar exibição" style="shape=ellipse;html=1;dashed=0;whiteSpace=wrap;perimeter=ellipsePerimeter;" vertex="1" parent="1">
          <mxGeometry x="510" y="420" width="120" height="50" as="geometry" />
        </mxCell>
        <mxCell id="41HEvBep1YAE45Kj1m3O-24" style="edgeStyle=orthogonalEdgeStyle;rounded=0;orthogonalLoop=1;jettySize=auto;html=1;exitX=0.5;exitY=0;exitDx=0;exitDy=0;entryX=0.5;entryY=1;entryDx=0;entryDy=0;" edge="1" parent="1" source="41HEvBep1YAE45Kj1m3O-19" target="41HEvBep1YAE45Kj1m3O-22">
          <mxGeometry relative="1" as="geometry" />
        </mxCell>
        <mxCell id="41HEvBep1YAE45Kj1m3O-26" value="Task" style="edgeLabel;html=1;align=center;verticalAlign=middle;resizable=0;points=[];" vertex="1" connectable="0" parent="41HEvBep1YAE45Kj1m3O-24">
          <mxGeometry x="0.015" y="3" relative="1" as="geometry">
            <mxPoint as="offset" />
          </mxGeometry>
        </mxCell>
        <mxCell id="41HEvBep1YAE45Kj1m3O-19" value="Apresentar &lt;br&gt;exibição" style="shape=ellipse;html=1;dashed=0;whiteSpace=wrap;perimeter=ellipsePerimeter;" vertex="1" parent="1">
          <mxGeometry x="510" y="310" width="120" height="50" as="geometry" />
        </mxCell>
        <mxCell id="41HEvBep1YAE45Kj1m3O-22" value="Usuário" style="html=1;dashed=0;whiteSpace=wrap;" vertex="1" parent="1">
          <mxGeometry x="700" y="210" width="100" height="50" as="geometry" />
        </mxCell>
        <mxCell id="41HEvBep1YAE45Kj1m3O-28" value="2. Exibição de Tasks" style="text;html=1;strokeColor=none;fillColor=none;align=center;verticalAlign=middle;whiteSpace=wrap;rounded=0;fontSize=15;" vertex="1" parent="1">
          <mxGeometry x="346.25" y="190" width="163.75" height="30" as="geometry" />
        </mxCell>
        <mxCell id="41HEvBep1YAE45Kj1m3O-35" value="Título + Data Entrega&lt;br style=&quot;font-size: 13px;&quot;&gt;&lt;span style=&quot;font-size: 13px;&quot;&gt;e Dados Opcionais&lt;/span&gt;" style="edgeLabel;html=1;align=center;verticalAlign=middle;resizable=0;points=[];" vertex="1" connectable="0" parent="1">
          <mxGeometry x="230.00149823756774" y="229.99814841165002" as="geometry" />
        </mxCell>
        <mxCell id="41HEvBep1YAE45Kj1m3O-36" value="Tag(s) (Opcional)" style="edgeLabel;html=1;align=center;verticalAlign=middle;resizable=0;points=[];" vertex="1" connectable="0" parent="1">
          <mxGeometry x="149.99850176243226" y="304.99604314849233" as="geometry" />
        </mxCell>
      </root>
    </mxGraphModel>
  </diagram>
</mxfile>
